<mxfile host="app.diagrams.net" modified="2024-01-28T09:04:28.502Z" agent="Mozilla/5.0 (Windows NT 10.0; Win64; x64) AppleWebKit/537.36 (KHTML, like Gecko) Chrome/121.0.0.0 Safari/537.36" etag="PnNrEl5o7FSpR0z8__jA" version="23.0.2" type="github">
  <diagram id="C5RBs43oDa-KdzZeNtuy" name="Page-1">
    <mxGraphModel dx="1702" dy="435" grid="1" gridSize="10" guides="1" tooltips="1" connect="1" arrows="1" fold="1" page="1" pageScale="1" pageWidth="827" pageHeight="1169" math="0" shadow="0">
      <root>
        <mxCell id="WIyWlLk6GJQsqaUBKTNV-0" />
        <mxCell id="WIyWlLk6GJQsqaUBKTNV-1" parent="WIyWlLk6GJQsqaUBKTNV-0" />
        <mxCell id="zkfFHV4jXpPFQw0GAbJ--0" value="Field" style="swimlane;fontStyle=2;align=center;verticalAlign=top;childLayout=stackLayout;horizontal=1;startSize=26;horizontalStack=0;resizeParent=1;resizeLast=0;collapsible=1;marginBottom=0;rounded=0;shadow=0;strokeWidth=1;" parent="WIyWlLk6GJQsqaUBKTNV-1" vertex="1">
          <mxGeometry x="332" y="190" width="160" height="50" as="geometry">
            <mxRectangle x="230" y="140" width="160" height="26" as="alternateBounds" />
          </mxGeometry>
        </mxCell>
        <mxCell id="pAcyZM4kXRblPFC08pDv-21" value="- value" style="text;whiteSpace=wrap;html=1;align=left;" vertex="1" parent="zkfFHV4jXpPFQw0GAbJ--0">
          <mxGeometry y="26" width="160" height="24" as="geometry" />
        </mxCell>
        <mxCell id="zkfFHV4jXpPFQw0GAbJ--17" value="Note" style="swimlane;fontStyle=0;align=center;verticalAlign=top;childLayout=stackLayout;horizontal=1;startSize=40;horizontalStack=0;resizeParent=1;resizeLast=0;collapsible=1;marginBottom=0;rounded=0;shadow=0;strokeWidth=1;" parent="WIyWlLk6GJQsqaUBKTNV-1" vertex="1">
          <mxGeometry x="-114" y="452" width="160" height="142" as="geometry">
            <mxRectangle x="550" y="140" width="160" height="26" as="alternateBounds" />
          </mxGeometry>
        </mxCell>
        <mxCell id="pAcyZM4kXRblPFC08pDv-26" value="+ value" style="text;whiteSpace=wrap;html=1;align=left;" vertex="1" parent="zkfFHV4jXpPFQw0GAbJ--17">
          <mxGeometry y="40" width="160" height="24" as="geometry" />
        </mxCell>
        <mxCell id="pAcyZM4kXRblPFC08pDv-36" value="" style="line;html=1;strokeWidth=1;align=left;verticalAlign=middle;spacingTop=-1;spacingLeft=3;spacingRight=3;rotatable=0;labelPosition=right;points=[];portConstraint=eastwest;" vertex="1" parent="zkfFHV4jXpPFQw0GAbJ--17">
          <mxGeometry y="64" width="160" height="6" as="geometry" />
        </mxCell>
        <mxCell id="pAcyZM4kXRblPFC08pDv-42" value="&lt;div style=&quot;font-family: Consolas, &amp;quot;Courier New&amp;quot;, monospace; line-height: 19px;&quot;&gt;&lt;span style=&quot;background-color: rgb(255, 255, 255);&quot;&gt;&lt;font style=&quot;font-size: 12px;&quot;&gt;+ add_tag()&lt;/font&gt;&lt;/span&gt;&lt;br&gt;&lt;/div&gt;" style="text;whiteSpace=wrap;html=1;align=left;" vertex="1" parent="zkfFHV4jXpPFQw0GAbJ--17">
          <mxGeometry y="70" width="160" height="24" as="geometry" />
        </mxCell>
        <mxCell id="pAcyZM4kXRblPFC08pDv-43" value="&lt;div style=&quot;line-height: 19px;&quot;&gt;&lt;span style=&quot;background-color: rgb(255, 255, 255);&quot;&gt;&lt;font style=&quot;&quot;&gt;&lt;font face=&quot;Consolas, Courier New, monospace&quot;&gt;+ remove_tag()&lt;/font&gt;&lt;/font&gt;&lt;/span&gt;&lt;br&gt;&lt;/div&gt;" style="text;whiteSpace=wrap;html=1;align=left;" vertex="1" parent="zkfFHV4jXpPFQw0GAbJ--17">
          <mxGeometry y="94" width="160" height="24" as="geometry" />
        </mxCell>
        <mxCell id="pAcyZM4kXRblPFC08pDv-44" value="&lt;div style=&quot;line-height: 19px;&quot;&gt;&lt;span style=&quot;background-color: rgb(255, 255, 255);&quot;&gt;&lt;font style=&quot;&quot;&gt;&lt;font face=&quot;Consolas, Courier New, monospace&quot;&gt;+ search_tag()&lt;/font&gt;&lt;/font&gt;&lt;/span&gt;&lt;br&gt;&lt;/div&gt;" style="text;whiteSpace=wrap;html=1;align=left;" vertex="1" parent="zkfFHV4jXpPFQw0GAbJ--17">
          <mxGeometry y="118" width="160" height="24" as="geometry" />
        </mxCell>
        <mxCell id="zkfFHV4jXpPFQw0GAbJ--26" value="" style="endArrow=open;shadow=0;strokeWidth=1;rounded=0;endFill=1;edgeStyle=elbowEdgeStyle;elbow=vertical;startArrow=none;startFill=0;entryX=0.5;entryY=1;entryDx=0;entryDy=0;exitX=0.5;exitY=0;exitDx=0;exitDy=0;" parent="WIyWlLk6GJQsqaUBKTNV-1" source="pAcyZM4kXRblPFC08pDv-7" target="zkfFHV4jXpPFQw0GAbJ--0" edge="1">
          <mxGeometry x="0.5" y="41" relative="1" as="geometry">
            <mxPoint x="436" y="252" as="sourcePoint" />
            <mxPoint x="346" y="262" as="targetPoint" />
            <mxPoint x="-40" y="32" as="offset" />
            <Array as="points">
              <mxPoint x="346" y="372" />
              <mxPoint x="296" y="422" />
            </Array>
          </mxGeometry>
        </mxCell>
        <mxCell id="pAcyZM4kXRblPFC08pDv-1" value="Email" style="swimlane;fontStyle=0;align=center;verticalAlign=top;childLayout=stackLayout;horizontal=1;startSize=40;horizontalStack=0;resizeParent=1;resizeLast=0;collapsible=1;marginBottom=0;rounded=0;shadow=0;strokeWidth=1;" vertex="1" parent="WIyWlLk6GJQsqaUBKTNV-1">
          <mxGeometry x="66" y="452" width="160" height="124" as="geometry">
            <mxRectangle x="550" y="140" width="160" height="26" as="alternateBounds" />
          </mxGeometry>
        </mxCell>
        <mxCell id="pAcyZM4kXRblPFC08pDv-37" value="+ value" style="text;whiteSpace=wrap;html=1;align=left;" vertex="1" parent="pAcyZM4kXRblPFC08pDv-1">
          <mxGeometry y="40" width="160" height="24" as="geometry" />
        </mxCell>
        <mxCell id="pAcyZM4kXRblPFC08pDv-35" value="" style="line;html=1;strokeWidth=1;align=left;verticalAlign=middle;spacingTop=-1;spacingLeft=3;spacingRight=3;rotatable=0;labelPosition=right;points=[];portConstraint=eastwest;" vertex="1" parent="pAcyZM4kXRblPFC08pDv-1">
          <mxGeometry y="64" width="160" height="6" as="geometry" />
        </mxCell>
        <mxCell id="pAcyZM4kXRblPFC08pDv-3" value="Phone" style="swimlane;fontStyle=0;align=center;verticalAlign=top;childLayout=stackLayout;horizontal=1;startSize=40;horizontalStack=0;resizeParent=1;resizeLast=0;collapsible=1;marginBottom=0;rounded=0;shadow=0;strokeWidth=1;" vertex="1" parent="WIyWlLk6GJQsqaUBKTNV-1">
          <mxGeometry x="426" y="452" width="160" height="128" as="geometry">
            <mxRectangle x="550" y="140" width="160" height="26" as="alternateBounds" />
          </mxGeometry>
        </mxCell>
        <mxCell id="pAcyZM4kXRblPFC08pDv-33" value="+ value" style="text;whiteSpace=wrap;html=1;align=left;" vertex="1" parent="pAcyZM4kXRblPFC08pDv-3">
          <mxGeometry y="40" width="160" height="24" as="geometry" />
        </mxCell>
        <mxCell id="pAcyZM4kXRblPFC08pDv-4" value="" style="line;html=1;strokeWidth=1;align=left;verticalAlign=middle;spacingTop=-1;spacingLeft=3;spacingRight=3;rotatable=0;labelPosition=right;points=[];portConstraint=eastwest;strokeColor=default;" vertex="1" parent="pAcyZM4kXRblPFC08pDv-3">
          <mxGeometry y="64" width="160" height="10" as="geometry" />
        </mxCell>
        <mxCell id="pAcyZM4kXRblPFC08pDv-46" value="&lt;div style=&quot;line-height: 19px;&quot;&gt;&lt;span style=&quot;background-color: rgb(255, 255, 255);&quot;&gt;&lt;font style=&quot;&quot;&gt;&lt;font face=&quot;Consolas, Courier New, monospace&quot;&gt;- value()&lt;/font&gt;&lt;/font&gt;&lt;/span&gt;&lt;br&gt;&lt;/div&gt;" style="text;whiteSpace=wrap;html=1;align=left;" vertex="1" parent="pAcyZM4kXRblPFC08pDv-3">
          <mxGeometry y="74" width="160" height="24" as="geometry" />
        </mxCell>
        <mxCell id="pAcyZM4kXRblPFC08pDv-29" value="&lt;div style=&quot;font-family: Consolas, &amp;quot;Courier New&amp;quot;, monospace; line-height: 19px;&quot;&gt;&lt;span style=&quot;background-color: rgb(255, 255, 255);&quot;&gt;&lt;font style=&quot;font-size: 12px;&quot;&gt;+ validate_phone()&lt;/font&gt;&lt;/span&gt;&lt;br&gt;&lt;/div&gt;" style="text;whiteSpace=wrap;html=1;align=left;" vertex="1" parent="pAcyZM4kXRblPFC08pDv-3">
          <mxGeometry y="98" width="160" height="24" as="geometry" />
        </mxCell>
        <mxCell id="pAcyZM4kXRblPFC08pDv-5" value="Birthday" style="swimlane;fontStyle=0;align=center;verticalAlign=top;childLayout=stackLayout;horizontal=1;startSize=40;horizontalStack=0;resizeParent=1;resizeLast=0;collapsible=1;marginBottom=0;rounded=0;shadow=0;strokeWidth=1;" vertex="1" parent="WIyWlLk6GJQsqaUBKTNV-1">
          <mxGeometry x="606" y="452" width="160" height="124" as="geometry">
            <mxRectangle x="550" y="140" width="160" height="26" as="alternateBounds" />
          </mxGeometry>
        </mxCell>
        <mxCell id="pAcyZM4kXRblPFC08pDv-30" value="+ value" style="text;whiteSpace=wrap;html=1;align=left;" vertex="1" parent="pAcyZM4kXRblPFC08pDv-5">
          <mxGeometry y="40" width="160" height="24" as="geometry" />
        </mxCell>
        <mxCell id="pAcyZM4kXRblPFC08pDv-38" value="" style="line;html=1;strokeWidth=1;align=left;verticalAlign=middle;spacingTop=-1;spacingLeft=3;spacingRight=3;rotatable=0;labelPosition=right;points=[];portConstraint=eastwest;strokeColor=default;" vertex="1" parent="pAcyZM4kXRblPFC08pDv-5">
          <mxGeometry y="64" width="160" height="10" as="geometry" />
        </mxCell>
        <mxCell id="pAcyZM4kXRblPFC08pDv-45" value="&lt;div style=&quot;line-height: 19px;&quot;&gt;&lt;span style=&quot;background-color: rgb(255, 255, 255);&quot;&gt;&lt;font style=&quot;&quot;&gt;&lt;font face=&quot;Consolas, Courier New, monospace&quot;&gt;- value()&lt;/font&gt;&lt;/font&gt;&lt;/span&gt;&lt;br&gt;&lt;/div&gt;" style="text;whiteSpace=wrap;html=1;align=left;" vertex="1" parent="pAcyZM4kXRblPFC08pDv-5">
          <mxGeometry y="74" width="160" height="24" as="geometry" />
        </mxCell>
        <mxCell id="pAcyZM4kXRblPFC08pDv-7" value="Name" style="swimlane;fontStyle=0;align=center;verticalAlign=top;childLayout=stackLayout;horizontal=1;startSize=40;horizontalStack=0;resizeParent=1;resizeLast=0;collapsible=1;marginBottom=0;rounded=0;shadow=0;strokeWidth=1;" vertex="1" parent="WIyWlLk6GJQsqaUBKTNV-1">
          <mxGeometry x="246" y="452" width="160" height="128" as="geometry">
            <mxRectangle x="334" y="452" width="160" height="26" as="alternateBounds" />
          </mxGeometry>
        </mxCell>
        <mxCell id="pAcyZM4kXRblPFC08pDv-34" value="+ value" style="text;whiteSpace=wrap;html=1;align=left;" vertex="1" parent="pAcyZM4kXRblPFC08pDv-7">
          <mxGeometry y="40" width="160" height="24" as="geometry" />
        </mxCell>
        <mxCell id="pAcyZM4kXRblPFC08pDv-8" value="" style="line;html=1;strokeWidth=1;align=left;verticalAlign=middle;spacingTop=-1;spacingLeft=3;spacingRight=3;rotatable=0;labelPosition=right;points=[];portConstraint=eastwest;" vertex="1" parent="pAcyZM4kXRblPFC08pDv-7">
          <mxGeometry y="64" width="160" height="6" as="geometry" />
        </mxCell>
        <mxCell id="pAcyZM4kXRblPFC08pDv-10" value="" style="endArrow=none;shadow=0;strokeWidth=1;rounded=0;endFill=0;edgeStyle=elbowEdgeStyle;elbow=vertical;startArrow=none;startFill=0;exitX=0.5;exitY=0;exitDx=0;exitDy=0;" edge="1" parent="WIyWlLk6GJQsqaUBKTNV-1" source="zkfFHV4jXpPFQw0GAbJ--17">
          <mxGeometry x="0.5" y="41" relative="1" as="geometry">
            <mxPoint x="566" y="424" as="sourcePoint" />
            <mxPoint x="326" y="372" as="targetPoint" />
            <mxPoint x="-40" y="32" as="offset" />
            <Array as="points">
              <mxPoint x="186" y="372" />
            </Array>
          </mxGeometry>
        </mxCell>
        <mxCell id="pAcyZM4kXRblPFC08pDv-12" value="" style="endArrow=none;shadow=0;strokeWidth=1;rounded=0;endFill=0;edgeStyle=elbowEdgeStyle;elbow=vertical;startArrow=none;startFill=0;exitX=0.5;exitY=0;exitDx=0;exitDy=0;" edge="1" parent="WIyWlLk6GJQsqaUBKTNV-1" source="pAcyZM4kXRblPFC08pDv-16">
          <mxGeometry x="0.5" y="41" relative="1" as="geometry">
            <mxPoint x="836" y="452" as="sourcePoint" />
            <mxPoint x="326" y="372" as="targetPoint" />
            <mxPoint x="-40" y="32" as="offset" />
            <Array as="points">
              <mxPoint x="726" y="372" />
            </Array>
          </mxGeometry>
        </mxCell>
        <mxCell id="pAcyZM4kXRblPFC08pDv-14" value="" style="endArrow=none;html=1;rounded=0;exitX=0.5;exitY=0;exitDx=0;exitDy=0;" edge="1" parent="WIyWlLk6GJQsqaUBKTNV-1" source="pAcyZM4kXRblPFC08pDv-3">
          <mxGeometry width="50" height="50" relative="1" as="geometry">
            <mxPoint x="396" y="482" as="sourcePoint" />
            <mxPoint x="506" y="372" as="targetPoint" />
          </mxGeometry>
        </mxCell>
        <mxCell id="pAcyZM4kXRblPFC08pDv-15" value="" style="endArrow=none;html=1;rounded=0;exitX=0.5;exitY=0;exitDx=0;exitDy=0;" edge="1" parent="WIyWlLk6GJQsqaUBKTNV-1">
          <mxGeometry width="50" height="50" relative="1" as="geometry">
            <mxPoint x="145.66000000000003" y="452" as="sourcePoint" />
            <mxPoint x="145.66000000000003" y="372" as="targetPoint" />
          </mxGeometry>
        </mxCell>
        <mxCell id="pAcyZM4kXRblPFC08pDv-16" value="Address" style="swimlane;fontStyle=0;align=center;verticalAlign=top;childLayout=stackLayout;horizontal=1;startSize=40;horizontalStack=0;resizeParent=1;resizeLast=0;collapsible=1;marginBottom=0;rounded=0;shadow=0;strokeWidth=1;" vertex="1" parent="WIyWlLk6GJQsqaUBKTNV-1">
          <mxGeometry x="782" y="452" width="160" height="124" as="geometry">
            <mxRectangle x="550" y="140" width="160" height="26" as="alternateBounds" />
          </mxGeometry>
        </mxCell>
        <mxCell id="pAcyZM4kXRblPFC08pDv-40" value="+ value" style="text;whiteSpace=wrap;html=1;align=left;" vertex="1" parent="pAcyZM4kXRblPFC08pDv-16">
          <mxGeometry y="40" width="160" height="24" as="geometry" />
        </mxCell>
        <mxCell id="pAcyZM4kXRblPFC08pDv-39" value="" style="line;html=1;strokeWidth=1;align=left;verticalAlign=middle;spacingTop=-1;spacingLeft=3;spacingRight=3;rotatable=0;labelPosition=right;points=[];portConstraint=eastwest;strokeColor=default;" vertex="1" parent="pAcyZM4kXRblPFC08pDv-16">
          <mxGeometry y="64" width="160" height="10" as="geometry" />
        </mxCell>
        <mxCell id="pAcyZM4kXRblPFC08pDv-18" value="" style="endArrow=none;html=1;rounded=0;exitX=0.5;exitY=0;exitDx=0;exitDy=0;" edge="1" parent="WIyWlLk6GJQsqaUBKTNV-1">
          <mxGeometry width="50" height="50" relative="1" as="geometry">
            <mxPoint x="685.5" y="452" as="sourcePoint" />
            <mxPoint x="685.5" y="372" as="targetPoint" />
          </mxGeometry>
        </mxCell>
      </root>
    </mxGraphModel>
  </diagram>
</mxfile>
